<svg version="1.2" xmlns="http://www.w3.org/2000/svg" viewBox="0 0 1024 1024" width="1024" height="1024">
	<title>SenzoIcon</title>
	<style>
		.s0 { fill: #061a21 } 
		.s1 { fill: #f07935 } 
	</style>
	<g id="Klasör 1">
		<path id="S" class="s0" aria-label="S"  d="m367.8 847.3q-74.8 0-137.4-22.2-61.9-22.1-100.1-64.9-38.1-43.5-42-106.9-1.5-26 8.4-57.3 10-31.3 27.5-61.8 18.4-31.3 42.8-55.8 25.2-25.2 53.5-38.1 2.2-1.6 6.8-2.3 5.4-0.8 7.7-0.8 4.5 0 4.5 2.3 0 3.8-11.4 12.2-32.1 25.2-52.7 58-21.4 32.9-32.1 70.3-10.7 37.4-10.7 75.6 0 45 19.1 77.9 19.9 32 52.7 53.4 32.9 20.6 74.8 30.6 42 9.9 87.9 9.9 51.1 0 100.8-11.5 50.4-11.4 91.6-32.8 63.4-33.6 100-83.2 37.4-49.7 37.4-98.5 0-26-11.4-49.7-10.7-23.6-35.1-42.7-18.4-14.5-45.1-27.5-26-13-55.7-25.2-29.1-12.2-57.3-24.4-28.3-13-49.6-27.5-30.6-20.7-45.1-44.3-13.7-23.7-13.7-47.4 0-28.2 16-54.9 16.8-26.8 45.1-48.2 29-22.1 64.9-34.3 31.3-10.7 67.9-16.8 37.4-6.1 73.3-6.1 29.8 0 56.5 4.6 27.5 3.8 48.1 14.5 26 12.2 39.7 32.8 13.8 19.9 13.8 42 0 30.5-27.5 53.5-9.9 7.6-22.1 14.5-12.3 6.1-29.1 10.6-3 0.8-6.8 0.8-9.2 0-9.2-5.3 0-3.1 4.6-6.1 5.3-3.9 15.3-4.6 22.9-3.1 34.3-17.6 12.2-14.5 12.2-33.6 0-19.8-13.7-38.9-13-19.9-40.5-32.9-27.5-13.7-70.2-13.7-24.5 0-54.2 5.3-29.1 5.4-63.4 17.6-42 14.5-70.3 42.8-27.5 28.2-27.5 60.3 0 19.8 13 40.5 13.8 19.8 43.5 38.1 25.2 15.3 57.3 30.6 32.1 14.5 64.9 29.8 32.8 14.5 59.6 31.3 42 25.9 60.3 55.7 18.3 29.8 18.3 61.1 0 36.7-22.1 74.1-21.4 36.6-56.5 69.5-35.2 32-77.1 57.2-48.9 29-110.8 45.1-61.1 15.3-123.7 15.3z"/>
		<path id="enzo" class="s1" aria-label="enzo"  d="m176.4 642.2q-30.5 0-43.5-13.8-12.2-13.7-12.2-34.3 0-12.3 3.8-25.2 3.8-13 9.9-26-5.3-3.1-5.3-7.6 0-6.9 16-12.3 6.9-9.9 16.8-26.7 10.7-17.5 22.9-35.1 13-17.6 26.8-29.8 13.7-12.2 26.7-12.2 10.7 0 13.7 8.4 3.1-0.8 8.4-0.8 22.2 0 22.2 22.9 0 17.6-12.2 33.6-12.3 15.3-29.1 19.1l0.8 3.8q0 0 7.6-0.7 7.7-1.5 13-2.3 13-0.8 28.3 0 15.3 0.8 19.8 6.9 1.6 1.5-0.7 2.3-1.6 0.7-3.1 0-6.1-3.1-19.8-3.1-18.4 0-43.6 4.6-24.4 4.6-45 11.4-20.6 6.1-28.3 11.5-6.8 10.7-13.7 27.5-6.9 16-6.9 31.3 0 13.7 7.6 23.7 8.4 9.1 29.8 9.1 22.9 0 42-11.4 19.9-11.5 36.7-28.3 16.8-17.6 29.8-32.8 1.5-1.6 10.7-12.2 9.1-10.7 19-22.9 10.7-13 15.3-19.9 0 0 1.5 1.5 1.6 3.1-0.7 6.1-10 12.3-19.9 26-9.9 13.7-20.6 26.7-15.3 19.1-34.4 38.2-18.3 18.3-40.4 30.5-22.2 12.3-49.7 12.3zm1.6-120.7q14.5-5.3 22.9-7.6 8.4-2.3 15.2-5.4 6.9-3.8 13-8.4 6.9-5.3 14.5-14.5 6.9-8.4 11.5-18.3 4.6-10.7 4.6-19.1 0-7.6-4.6-12.2-4.6-4.6-16 6.1-11.5 9.9-24.5 25.2-12.2 15.3-22.9 30.5-9.9 15.3-13.7 23.7zm119.1 111.5v-0.8q0-2.3 1.5-4.5 1.5-2.3 2.3-3.9 2.3-5.3 4.6-12.9 3-7.7 8.4-17.6 6.1-11.5 13-28.3 7.6-16.8 14.5-33.6 6.8-17.5 11.4-27.4 1.6-5.4 3.1-10 2.3-4.6 3-9.1 0.8-3.1 0.8-7.7 0-7.6-3.8-12.2-3.8-4.6-14.5-4.6-7.7 0-17.6 3.8-9.1 3.1-16.8 6.9 0-1.5 0.8-4.6 1.5-3 3-3.8 3.1-1.5 19.1-6.9 16.1-6.1 29.8-11.4 11.5-4.6 23.7-12.2 1.5-0.8 6.8-3.8 6.2-3.1 7.7-3.1h1.5q6.1 0 6.1 8.4 0 5.3-2.3 13.7-1.5 8.4-5.3 18.4-6.9 16.8-15.3 32.8-7.6 16-9.2 19.9l-21.3 48.1q32-32.1 59.5-61.9 27.5-29.8 52.7-58.8 15.3-17.5 38.2-17.5 9.2 0 15.3 3 3.8 1.5 1.5 3.1-1.5 1.5-4.6 2.3-10.7 3-25.2 20.6-14.5 17.5-27.5 42-12.2 23.6-19.1 45.8-6.1 19.8-6.1 36.6 0 10.7 3.8 17.6 3.9 6.9 12.3 6.9 12.2 0 32-13.8 10.7-7.6 26.8-24.4 16-17.6 31.3-36.7 15.2-19 24.4-30.5 0 0 1.5 1.5 1.6 3.8-0.7 6.1-5.4 7.7-13.8 19.1-8.4 11.5-19.1 24.5-10.7 12.2-22.9 25.2-11.4 12.9-22.9 22.1-10.7 9.2-23.7 15.3-12.9 6.1-25.2 6.1-17.5 0-24.4-10.7-6.9-11.5-6.9-26.7 0-13 3.1-26.8 3.8-13.7 7.6-25.9 3.8-11.5 14.5-32.1-23.6 19.1-45.8 38.9-21.4 19.9-34.3 39.8-5.4 7.6-10 19-4.6 11.5-7.6 22.2-0.8 2.3-6.1 4.6-4.6 1.5-10.7 3-5.3 0.8-11.5 2.3-6.1 1.5-11.4 4.6zm125.2 236q-38.2 0-59.5-18.4-21.4-18.3-21.4-45 0-24.5 19.1-52.7 19.8-29 61.8-52.7 27.5-15.3 60.3-26.7 32.9-12.2 66.5-19.9 33.6-7.6 62.6-11.4 29-3.9 47.3-3.1 1.6 0 3.9 0.8 2.2 0 5.3 0 3.1-6.9 6.1-15.3 3.1-9.2 6.1-18.3 4.6-16.1 4.6-26.8 0-15.2-6.9-21.3-6.8-6.9-16.8-6.9-4.6 0-9.1 1.5-4.6 1.5-9.2 3.8-7.6 3.1-15.3 10-6.8 6.1-13 12.2-3 3-6.1 6.1-2.3 2.3-3.8 4.6l-5.3 4.6q-6.9 2.2-12.2-1.6-5.4-4.6-8.4-10.7-2.3-6.1 0-7.6 28.2-26 42-53.4 13.7-28.3 14.5-45.1 0-7.6-3.1-12.2-2.3-5.4-8.4-5.4-15.3 0-43.5 35.9l-13.8 17.6q-7.6 9.9-14.5 16.8-2.3 2.3-6.1 2.3-0.7 0 0-2.3l18.3-23.7 8.4-13q7.7-11.4 17.6-26.7 10.7-15.3 21.4-22.9 16.8-12.2 32.8-12.2 12.2 0 19.9 6.9 7.6 6.8 7.6 19.8 0 6.1-2.3 14.5-1.5 7.7-6.1 16.1-5.3 12.2-14.5 25.2-8.4 12.2-16.8 22.9l-16 19.8q-3.1 3.8-6.1 8.4-3.1 4.6-7.7 13 10.7-9.2 19.9-16 9.9-7.7 17.5-12.3 26.8-13.7 42.8-13.7 16.8 0 22.9 11.4 6.9 11.5 6.9 28.3 0 16.8-4.6 35.1-4.6 17.6-11.4 32.9 41.9 8.4 46.5 24.4 0 0.8-1.5 2.3-1.5 0-1.5 0-1.6-7.6-13.8-13-12.2-5.3-32-8.4-17.6 38.2-47.4 79.4-29.8 40.5-66.4 74.1-36.7 32.8-76.4 49.6-23.6 10-44.3 14.5-19.8 3.9-37.4 3.9zm-6.1-6.9q16 0 35.9-5.4 20.6-6.1 44.3-18.3 33.6-17.6 64.9-48.9 31.3-32 58-70.2 27.5-38.2 45.8-74.1l-8.4-0.7q-17.5-1.6-46.5 3-28.3 4.6-61.9 14.5-32.8 9.9-64.9 23.7-32.1 13.7-57.3 31.3-34.3 23.7-50.4 49.6-16 25.2-16 46.6 0 21.4 14.5 35.1 14.5 13.8 42 13.8zm387.2-222.2q-18.4 0-31.4-13.8-12.2-13.7-12.2-42.7 0-26 11.5-52 11.4-25.9 30.5-46.5 19.9-21.4 43.6-32.1 6.1-2.3 11.4-3.8 5.4-1.6 10.7-1.6 11.5 0 19.9 6.2 8.4 6.1 8.4 19 0 3.1-0.8 5.4 0 2.3-0.8 5.3-0.7 3.1-4.6 3.9-3 0.7-3-2.3 1.5-13-5.4-19.9-6.1-7.6-16-7.6-6.9 0-13 3-19.1 9.2-33.6 28.3-13.7 18.3-21.4 40.5-6.8 22.1-6.8 42.7 0.7 44.3 29.8 44.3 16 0 33.6-13 17.5-13 30.5-35.9 13-22.9 20.6-48.8 7.6-26.8 7.6-48.1 0-13-3-23.7-3.1-10.7-10.7-16.1-3.8-3-12.2-3-13 0-19.9 5.3-4.5 3.1-5.3 3.1-3.1 0-3.1-3.8 0-3.1 3.1-7.7 4.6-7.6 14.5-11.4 9.9-3.8 20.6-3.8 12.2 0 21.4 5.3 19.8 10.7 19.8 45.1 0 24.4-10.6 54.9-10 30.6-28.3 58.8-17.6 27.5-40.5 45.1-27.5 21.4-54.9 21.4z"/>
	</g>
</svg>